# xmcd
#
# Track frame offsets:
#	150
#	8291
#	22019
#	32435
#	45046
#	55280
#	66450
#	74992
#	85891
#	95208
#	109665
#	136289
#	145904
#	155613
#	167239
#	178164
#	191979
#	204405
#
# Disc length: 2879 seconds
#
# Revision: 0
# Processed by: cddbd v1.5.2PL0 Copyright (c) Steve Scherf et al.
# Submitted via: EZCDAudioConverter 1.3.4.1
#
DISCID=040b3d12
DTITLE=The Rationals - Think Rational! 1/2
DYEAR=1900
DGENRE=
TTITLE0=Feelin' Lost
TTITLE1=Look What You're Doing (To Me Baby )
TTITLE2=Someday
TTITLE3=Gave My Love
TTITLE4=I Need You
TTITLE5=I Want To Walk With You
TTITLE6=Little Girls Cry (Deon's Song)
TTITLE7=Gloria
TTITLE8=Be My Girl
TTITLE9=Leavin' Here [Version 1]
TTITLE10=Smokestack Lightning - Inside Looking Out
TTITLE11=Sing
TTITLE12=Turn On
TTITLE13=Irrational
TTITLE14=Look What You're Doing (To Me Baby) [Demo]
TTITLE15=Someday [Demo]
TTITLE16=Gave My Love [Demo]
TTITLE17=Out In The Streets [Rehearsal]
EXTD=
EXTT0=
EXTT1=
EXTT2=
EXTT3=
EXTT4=
EXTT5=
EXTT6=
EXTT7=
EXTT8=
EXTT9=
EXTT10=
EXTT11=
EXTT12=
EXTT13=
EXTT14=
EXTT15=
EXTT16=
EXTT17=
PLAYORDER=
